<svg xmlns="http://www.w3.org/2000/svg" width="342.954" height="340.737" viewBox="0 0 342.954 340.737"><path d="M323.928,331.23H19.025A19.075,19.075,0,0,1,0,312.217V19.013A19.075,19.075,0,0,1,19.025,0h304.9a19.075,19.075,0,0,1,19.025,19.013v293.2a19.075,19.075,0,0,1-19.025,19.013" transform="translate(0 9.507)" fill="#d6d3c3"/><path d="M323.928,331.23H19.025A19.075,19.075,0,0,1,0,312.217V19.013A19.075,19.075,0,0,1,19.025,0h304.9a19.075,19.075,0,0,1,19.025,19.013v293.2a19.075,19.075,0,0,1-19.025,19.013" fill="#fff"/></svg>