<svg xmlns="http://www.w3.org/2000/svg" width="125" height="154" viewBox="0 0 125 154"><path d="M6,0H119a6.018,6.018,0,0,1,6,6V141a6.018,6.018,0,0,1-6,6H6a6.018,6.018,0,0,1-6-6V6A6.018,6.018,0,0,1,6,0" transform="translate(0 7)" fill="#d6d3c3"/><path d="M6,0H119a6.018,6.018,0,0,1,6,6V141a6.018,6.018,0,0,1-6,6H6a6.018,6.018,0,0,1-6-6V6A6.018,6.018,0,0,1,6,0" fill="#fff"/><text transform="translate(43 83)" fill="#c4aca7" font-size="16" font-family="Consolas-Bold, Consolas" font-weight="700"><tspan x="0" y="0">SCORE</tspan></text></svg>