<svg xmlns="http://www.w3.org/2000/svg" width="81" height="83.581" viewBox="0 0 81 83.581"><path d="M48,24A24,24,0,1,1,24,0,24,24,0,0,1,48,24" transform="translate(16 35.581)" fill="#d6d3c3"/><path d="M48,24A24,24,0,1,1,24,0,24,24,0,0,1,48,24" transform="translate(16 30)" fill="#fff"/><path d="M8.979,16.744,0,2.616a16.722,16.722,0,0,1,17.86-.063Z" transform="translate(30.512 35.581)" fill="none" stroke="#c4aca7" stroke-linecap="round" stroke-linejoin="round" stroke-miterlimit="10" stroke-width="3"/><path d="M27.907,13.953A13.953,13.953,0,1,1,13.953,0,13.954,13.954,0,0,1,27.907,13.953Z" transform="translate(26.047 40.047)" fill="#fff" stroke="#c4aca7" stroke-linecap="round" stroke-linejoin="round" stroke-miterlimit="10" stroke-width="3"/><path d="M0,0,1.782,7.814l3.8-4.906" transform="translate(38.326 45.628)" fill="none" stroke="#c4aca7" stroke-linecap="round" stroke-linejoin="round" stroke-miterlimit="10" stroke-width="3"/><rect width="81" height="26" rx="7" fill="#fff"/></svg>