<svg xmlns="http://www.w3.org/2000/svg" width="43" height="48" viewBox="0 0 43 48"><g transform="translate(0 0)"><path d="M43,21.5A21.5,21.5,0,1,1,21.5,0,21.5,21.5,0,0,1,43,21.5" transform="translate(0 5)" fill="#d6d3c3"/><path d="M43,21.5A21.5,21.5,0,1,1,21.5,0,21.5,21.5,0,0,1,43,21.5" transform="translate(0)" fill="#fff"/><path d="M14.609,23.271h0a3.168,3.168,0,0,0-2.973-2.051,3.21,3.21,0,0,0-2.974,2.049,11.981,11.981,0,0,1-3.154-1.3,3.2,3.2,0,0,0-.651-3.554A3.181,3.181,0,0,0,1.3,17.758,11.912,11.912,0,0,1,0,14.609a3.205,3.205,0,0,0,2.051-2.975A3.21,3.21,0,0,0,0,8.661a11.871,11.871,0,0,1,1.306-3.15A3.184,3.184,0,0,0,5.512,1.3,11.916,11.916,0,0,1,8.662,0a3.2,3.2,0,0,0,2.974,2.05A3.21,3.21,0,0,0,14.609,0a11.985,11.985,0,0,1,3.154,1.3,3.2,3.2,0,0,0,.651,3.554,3.183,3.183,0,0,0,3.553.654,11.922,11.922,0,0,1,1.3,3.15,3.165,3.165,0,0,0-2.052,2.974A3.2,3.2,0,0,0,23.27,14.61a11.891,11.891,0,0,1-1.307,3.149,3.183,3.183,0,0,0-4.2,4.208,11.939,11.939,0,0,1-3.149,1.3ZM11.541,8.437a3.2,3.2,0,0,0,0,6.393h.092a3.2,3.2,0,0,0,0-6.39Z" transform="translate(10.229 9.784)" fill="none" stroke="#c4aca7" stroke-linecap="round" stroke-linejoin="round" stroke-miterlimit="10" stroke-width="3"/></g></svg>